<svg t="1711351222081" class="icon" viewBox="0 0 1024 1024" version="1.1" xmlns="http://www.w3.org/2000/svg" p-id="9696" width="200" height="200"><path d="M466.882 136.68a23.998 23.998 0 0 1 8.485 19.07c-0.31 9.908-0.271 21.734 0.597 34.549 2.421 35.711 11.282 79.174 37.043 110.214 25.743 30.99 61.745 53.364 91.302 67.985l0.004 0.002a405.381 405.381 0 0 0 37.406 16.224l0.039 0.015 1.243 0.461a24.002 24.002 0 0 1 15.379 18.918 206.152 206.152 0 0 0 7.667 32.587 231.538 231.538 0 0 0 60.38 96.232l0.073 0.069c34.251 32.998 75.667 52.277 108.521 63.313v0.001a351.745 351.745 0 0 0 31.623 9.003 23.998 23.998 0 0 1 17.136 31.413 384.006 384.006 0 0 1-290.891 248.669 384.006 384.006 0 0 1-361.298-126.166 383.994 383.994 0 0 1-72.862-375.693 384 384 0 0 1 287.941-252.08 24.001 24.001 0 0 1 20.212 5.214z m-39.266 48.854a335.994 335.994 0 0 0-223.478 213.569 335.997 335.997 0 0 0 207.09 426.117 335.993 335.993 0 0 0 329.101-61.816 336 336 0 0 0 88.574-118.626 400.155 400.155 0 0 1-9.168-2.958c-36.737-12.34-85.345-34.573-126.508-74.217a279.53 279.53 0 0 1-72.856-116.145l-0.001-0.003a254.136 254.136 0 0 1-6.955-26.261 453.432 453.432 0 0 1-30.388-13.672l-0.003-0.002c-32.22-15.938-75.033-41.921-106.948-80.345l-0.006-0.008c-35.519-42.799-45.358-98.714-47.997-137.623v-0.003a378.404 378.404 0 0 1-0.457-8.007z" p-id="9697"></path><path d="M301.5 436c-9.665 0-17.5-7.835-17.5-17.5s7.835-17.5 17.5-17.5 17.5 7.835 17.5 17.5-7.835 17.5-17.5 17.5z m0 28c25.129 0 45.5-20.371 45.5-45.5S326.629 373 301.5 373 256 393.371 256 418.5s20.371 45.5 45.5 45.5zM823.5 194c-9.665 0-17.5-7.835-17.5-17.5s7.835-17.5 17.5-17.5 17.5 7.835 17.5 17.5-7.835 17.5-17.5 17.5z m0 28c25.129 0 45.5-20.371 45.5-45.5S848.629 131 823.5 131 778 151.371 778 176.5s20.371 45.5 45.5 45.5zM612 721c-8.284 0-15-6.716-15-15 0-8.284 6.716-15 15-15 8.284 0 15 6.716 15 15 0 8.284-6.716 15-15 15z m0 28c23.748 0 43-19.252 43-43s-19.252-43-43-43-43 19.252-43 43 19.252 43 43 43zM867 391c-8.284 0-15-6.716-15-15 0-8.284 6.716-15 15-15 8.284 0 15 6.716 15 15 0 8.284-6.716 15-15 15z m0 28c23.748 0 43-19.252 43-43s-19.252-43-43-43-43 19.252-43 43 19.252 43 43 43zM505 540c-15.464 0-28-12.536-28-28s12.536-28 28-28 28 12.536 28 28-12.536 28-28 28z m0 36c35.346 0 64-28.654 64-64 0-35.346-28.654-64-64-64-35.346 0-64 28.654-64 64 0 35.346 28.654 64 64 64zM633 268c-15.464 0-28-12.536-28-28s12.536-28 28-28 28 12.536 28 28-12.536 28-28 28z m0 36c35.346 0 64-28.654 64-64 0-35.346-28.654-64-64-64-35.346 0-64 28.654-64 64 0 35.346 28.654 64 64 64zM394 713c-15.464 0-28-12.536-28-28s12.536-28 28-28 28 12.536 28 28-12.536 28-28 28z m0 36c35.346 0 64-28.654 64-64 0-35.346-28.654-64-64-64-35.346 0-64 28.654-64 64 0 35.346 28.654 64 64 64z" p-id="9698"></path></svg>