<svg t="1677033612018" class="icon p_icon " viewBox="0 0 1024 1024" version="1.1" xmlns="http://www.w3.org/2000/svg" p-id="5588" width="200" height="200">
        <path d="M798.72 225.73511147a44.78293333 44.78293333 0 0 0-31.85777813-13.19822294c-11.83288853 0-23.66577813 5.00622187-31.85777707 13.19822294L512 447.82933333 289.45066667 225.28a44.78293333 44.78293333 0 0 0-31.85777814-13.19822187c-11.83288853 0-23.66577813 5.00622187-32.31288853 13.19822187a45.32906667 45.32906667 0 0 0 0 64.17066667L447.82933333 512 225.28 734.54933333a45.32906667 45.32906667 0 1 0 64.17066667 64.17066667L512 576.17066667l222.54933333 222.54933333a45.32906667 45.32906667 0 1 0 64.17066667-64.17066667L576.17066667 512l222.54933333-222.54933333c17.29422187-17.29422187 17.29422187-46.42133333 0-63.7155552z" p-id="5589"></path>
      </svg>