<svg t="1631600028416" class="icon" viewBox="0 0 1024 1024" version="1.1" xmlns="http://www.w3.org/2000/svg" p-id="5934" width="128" height="128"><path d="M515.7657664 787.44674027c4.65754453 0 9.4002272-0.28488853 14.1701984-0.85357334 45.7491552-5.49037867 84.59767893-37.46665067 98.93815467-81.5337632 1.07952-3.29968533-0.4824544-6.82749867-3.634784-8.2781376-3.1239488-1.45063893-6.90063147-0.19865813-8.661264 2.7593792-0.1702784 0.28488853-18.34528747 29.64368-89.11223254 39.20217814-10.59217387 1.4222592-20.90055147 2.16231467-30.6697152 2.16231466-49.58259627-0.02837973-71.67618667-18.71858987-71.8748448-18.88995946-2.49850453-2.21907413-6.30465813-2.27583253-8.85992106-0.11351894-2.58364373 2.16231467-3.18070827 5.91716587-1.42007574 8.7911552C436.22403947 765.68388267 474.95795307 787.44674027 515.7657664 787.44674027zM896.26976107 348.88335467c-0.62544427 0-1.19303893 0.11351893-1.78901227 0.11351893C853.0191104 169.48658987 694.58729707 35.5791968 504.63437867 35.5791968c-195.17805653 0-357.2446528 141.3046688-393.16897707 328.2395168-34.9288512 6.2871936-61.50970773 36.98310507-61.50970773 74.10919893l0 148.5873344c0 41.64828907 33.39634773 75.416848 74.62985706 75.416848 23.25824853 0 43.78986453-10.98075733 57.4492288-27.85139306 32.99684907 87.277376 100.1835872 157.6568288 185.2025952 194.78401493 0.2041152-0.44315947 1.81411733-3.5714752 3.74830187-6.0645216 1.34148587-1.72897813 2.83796907-3.14905387 4.12597013-3.14905387 1.33493653 0 2.5563552 0.48354667 3.60640427 1.22360107-19.68022507-14.6515616-90.75934613-89.95489067-106.1509632-195.0437984-6.7587328-46.25780587 27.88632213-91.6609472 68.2400608-99.17174187 64.7755552-12.0624608 129.21055467-25.80259733 193.98610987-37.63692906 41.17674987-7.51079467 69.3195808-30.09884587 86.5285888-67.7073952 4.0320992-8.7911552 9.85430187-26.57103253 12.524176-52.20335147 0.70949227-3.81161067 3.83344107-6.74235947 7.8382528-6.74235947 2.66987413 0 4.9413408 1.36549973 6.44655573 3.32806507l1.78901227-1.10899093c25.52971627 37.0682432 76.1634528 119.14231253 83.43301973 205.6829088 8.34908693 98.944704 3.69154347 166.70885973-72.04512213 236.03826346-0.0851392 0.0851392-0.19865813 0.19865813-0.31217707 0.28488854-1.05114027 1.13737067-1.67549333 2.61748053-1.67549333 4.23839786 0 2.13393493 1.13627947 3.95460053 2.78339306 5.06359147 0.62435307 0.2565088 1.2497984 0.59706453 1.87415147 0.85357333 0.51083413 0.11351893 0.9932896 0.28488853 1.50521493 0.28488854 0.5119264 0 0.96600107-0.1702784 1.42007574-0.28488854 1.07952-0.56868587 2.10118827-1.22360107 3.15232853-1.79228693 76.58914773-42.1896864 135.34384213-112.65646187 162.49229227-197.4047712 10.98949013 16.3292384 28.19849813 28.07843093 48.19090026 32.17493013-32.0614112 145.8279552-162.12335573 237.09049493-323.25342293 250.94524267-9.6556448-23.953552-33.42472747-40.96608533-61.33942933-40.96608533-36.46244693 0-66.0253536 28.8752448-66.0253536 64.4644704s29.56181547 64.43609067 66.0253536 64.43609066c29.39153707 0 54.01310293-18.88995947 62.560848-44.83445546 186.51679253-15.163488 336.03192533-126.02766293 367.2419456-298.28365974 27.57414507-11.52215467 46.94110187-38.57673387 46.94110186-70.1545984L972.88947093 424.98349867C972.88728853 382.96518187 938.58169813 348.88335467 896.26976107 348.88335467zM827.4610144 392.06851307C778.81603947 260.29505493 652.7578144 166.1585248 504.46410027 166.1585248c-147.66936107 0-273.2724192 93.3397152-322.37256107 224.2596-2.44174507-2.98750827-5.31027733-5.54713813-8.12204907-8.13623893C201.77067307 222.74217387 339.07489707 101.43754667 504.63437867 101.43754667c164.76485013 0 301.642288 120.1094048 330.35271253 278.54012693C832.14693867 383.79037547 829.533824 387.7733568 827.4610144 392.06851307zM367.24501547 828.86799253c-0.00327467-0.0010912-0.00545813-0.00218347-0.00873174-0.00327466C367.20572053 828.93348373 367.20462933 828.94221653 367.24501547 828.86799253z" p-id="5935"></path></svg>