<svg t="1725594013436" class="icon" viewBox="0 0 1024 1024" version="1.1" xmlns="http://www.w3.org/2000/svg" p-id="2390" xmlns:xlink="http://www.w3.org/1999/xlink" width="120" height="120"><path d="M512.000427 0c282.773333 0 512 229.226667 512 512S794.77376 1024 512.000427 1024c-68.074667 0-134.4-13.312-195.989334-38.869333-10.24-4.245333-21.034667-9.493333-32.384-15.722667L39.467093 1011.114667l16.384-268.437334a337.322667 337.322667 0 0 1-16.981333-34.688A510.570667 510.570667 0 0 1 0.000427 512C0.000427 229.226667 229.227093 0 512.000427 0z m0 85.333333C276.352427 85.333333 85.33376 276.352 85.33376 512c0 56.810667 11.093333 112 32.362667 163.306667 4.266667 10.304 10.325333 22.122667 18.218666 35.392l6.698667 11.285333-11.413333 186.88 168.618666-28.8 13.482667 8.021333c13.269333 7.893333 25.088 13.952 35.413333 18.218667A425.237333 425.237333 0 0 0 512.000427 938.666667c235.648 0 426.666667-191.018667 426.666666-426.666667S747.648427 85.333333 512.000427 85.333333z m-102.4 189.504c14.976 18.56 44.8 133.888 44.8 133.888h-0.021334l-54.4 55.338667c28.330667 62.912 88.405333 132.949333 158.122667 156.501333l47.018667-46.890666s111.509333 19.456 136.576 31.637333c21.717333 10.538667 28.906667 33.898667 25.493333 62.698667-3.626667 30.954667-44.202667 99.242667-117.312 99.989333-73.088 0.746667-180.736-54.314667-257.856-135.573333-77.12-81.28-145.877333-184.256-134.848-271.722667 11.008-87.445333 87.189333-103.104 106.24-104.490667 19.285333-1.429333 34.56 4.224 46.186667 18.624z" fill="#ff8400" p-id="2391"></path></svg>